<?xml version="1.0" encoding="iso-8859-1"?>
<!-- Generator: Adobe Illustrator 19.1.1, SVG Export Plug-In . SVG Version: 6.00 Build 0)  -->
<svg version="1.1"  xmlns="http://www.w3.org/2000/svg" xmlns:xlink="http://www.w3.org/1999/xlink" x="0px" y="0px"
	 viewBox="0 0 40 40" style="enable-background:new 0 0 40 40;" xml:space="preserve">
<path style="fill:none;stroke:#66798F;stroke-width:2;stroke-miterlimit:10;" d="M30,17.714c0,0,0-5.306,0-5.714
	c0-5.523-4.477-10-10-10S10,6.477,10,12c0,0.408,0,5.714,0,5.714"/>
<g>
	<path style="fill:#99C99E;" d="M2.5,37.5V19c0-1.93,1.57-3.5,3.5-3.5h28c1.93,0,3.5,1.57,3.5,3.5v18.5H2.5z"/>
	<g>
		<path style="fill:#5E9C76;" d="M34,16c1.654,0,3,1.346,3,3v18H3V19c0-1.654,1.346-3,3-3H34 M34,15H6c-2.209,0-4,1.791-4,4v19h36
			V19C38,16.791,36.209,15,34,15L34,15z"/>
	</g>
</g>
<path style="fill:#FFFFFF;" d="M14,27c0,1.133-0.867,2-2,2s-2-0.867-2-2s0.867-2,2-2S14,25.867,14,27z"/>
<path style="fill:#FFFFFF;" d="M28,25c-1.133,0-2,0.867-2,2s0.867,2,2,2s2-0.867,2-2S29.133,25,28,25z"/>
<path style="fill:#FFFFFF;" d="M20,25c-1.133,0-2,0.867-2,2s0.867,2,2,2s2-0.867,2-2S21.133,25,20,25z"/>
</svg>
